<svg xmlns="http://www.w3.org/2000/svg" xmlns:xlink="http://www.w3.org/1999/xlink" fill="#000000" version="1.1" id="Capa_1" width="800px" height="800px" viewBox="0 0 185.399 185.399" xml:space="preserve">
    <g>
        <g>
            <path d="M166.191,44.727c-5.591,0.064-11.682,0.3-17.097,1.768c-1.326,0.36-1.857,1.601-1.704,2.732    c-2.986,2.261-4.984,6.001-7.166,9.005c-4.179,5.755-7.843,11.937-11.427,18.074c-0.678,1.16-0.231,2.198,0.584,2.767    c-1.265,3.779-0.346,8.06,0.019,11.978c0.431,4.621,1.035,9.199,1.879,13.759c0.434,2.341,4.195,1.776,4.111-0.557    c-0.005-0.148-0.017-0.296-0.022-0.444c4.724,1.155,9.617,1.329,14.463,1.122c4.537-0.194,10.386-0.093,14.15-2.864    c1.186-0.872,1.404-2.237,0.881-3.264c4.975-14.988-1.272-32.426,2.84-47.566c0.038-0.139,0.031-0.263,0.049-0.395    C170.275,49.454,169.775,44.686,166.191,44.727z M135.156,99.63c-0.161-2.859-0.341-5.718-0.487-8.58    c-0.212-4.1,0.495-8.627-1.066-12.462c-0.124-0.305-0.343-0.479-0.534-0.692c3.584-5.059,7.359-9.949,11.131-14.871    c2.805-3.66,6.903-7.265,8.141-11.77c3.048-0.069,6.083-0.066,9.124-0.046c-2.115,4.4-1.232,12.24-1.289,15.646    c-0.169,10.165,0.11,20.483,0.541,30.653c-3.245,0.243-6.516,1.475-9.697,2.052C145.771,100.513,140.419,100.083,135.156,99.63z"/>
            <path d="M184.997,113.126c-0.503-1.225-1.991-2.172-3.24-1.68c-0.455-0.368-0.997-0.655-1.714-0.709    c-0.08-0.006-0.159-0.006-0.239-0.012c1.975-12.21,2.483-24.633,2.545-36.986c0.05-10.019,1.065-24.453-3.812-33.89    c0.815-1.904-0.104-4.591-2.821-4.626c-11.388-0.147-26.011-1.026-36.286,4.729c-5.327,2.984-7.495,11.971-9.906,17.106    C116.419,40.52,51.284-2.703,39.092,16.902c-0.64-0.072-1.302,0.147-1.62,0.794c-5.093,10.347-12.72,19.223-16.517,30.255    c-2.298,6.678-0.975,17.423,5.853,21.159c1.516,0.83,2.993,1.014,4.431,0.788c0.124,0.547,0.216,1.051,0.177,1.323    c-0.109,0.768-0.056,1.509-0.084,2.281c-0.01,0.29-0.041,0.579-0.072,0.867c0.093-0.862-0.08,0.243-0.121,0.412    c-0.116,0.48-0.176,0.963-0.318,1.439c-0.017,0.058-0.051,0.152-0.085,0.242c-0.055,0.109-0.107,0.22-0.164,0.328    c-0.093,0.172-0.2,0.335-0.308,0.498c-0.292,0.345-0.576,0.683-0.912,0.991c-0.03,0.028-0.037,0.036-0.06,0.058    c-0.063,0.035-0.147,0.085-0.271,0.163c-0.129,0.081-0.44,0.232-0.651,0.335c-0.25,0.086-0.498,0.176-0.753,0.242    c-0.157,0.041-0.316,0.071-0.476,0.101c-0.361,0.039-0.725,0.045-1.087,0.036c-0.07-0.002-0.096,0-0.147-0.001    c-0.021-0.005-0.024-0.007-0.05-0.012c-0.159-0.032-0.31-0.094-0.465-0.141c0.185,0.008-0.319-0.29-0.463-0.305    c-0.017-0.033-0.034-0.067-0.049-0.098c-0.005-0.017-0.011-0.034-0.015-0.051c-0.004-0.133-0.009-0.267-0.006-0.4    c0.001-0.045,0-0.06,0-0.095c0.091-0.486,0.247-0.957,0.415-1.419c0.095-0.259,0.207-0.511,0.302-0.77    c0.034-0.09,0.067-0.18,0.101-0.27c-0.233,0.525-0.157,0.341,0.226-0.552c0.767-2.133-0.771-5.586-3.519-4.558    c-5.286,1.978-6.361,9.917-2.746,13.841c0.986,1.071,2.155,1.793,3.415,2.229c-0.168,2.468,0.329,5.071,1.312,7.271    c-7.346,3.01-13.531,9.255-17.605,16.003c-0.429-1.463-2.823-1.738-3.185-0.016c-0.137,0.65-0.232,1.299-0.361,1.948    c-2.778,0.441-3.784,4.473-1.017,5.489c-1.384,8.404-2.132,16.814-2.196,25.414c-0.027,3.639,0.578,8.323,4.2,10.261    c17.687,9.464,41.734,3.542,60.71,3.249c1.986-0.031,3.398-1.573,3.501-3.501c0.669-12.507-0.076-24.818-1.738-37.223    c-0.272-2.033-1.394-3.298-3.494-3.494c-0.13-0.012-0.259-0.011-0.389-0.022c-0.009-0.176-0.008-0.349-0.065-0.538    c-3.33-11.133-15.418-17.925-26.335-19.288c-2.823-0.352-5.56-0.14-8.186,0.481c-0.269-1.154-0.487-2.304-0.545-3.542    c-0.033-0.711,0.039-1.41,0.115-2.109c2.501-0.324,4.962-1.38,6.822-2.902c5.219-4.268,3.746-11.045,0.362-15.809    c6.758-4.783,12.184-18.41,14.968-25.425c4.469,4.113,9.262,7.656,12.74,10.369c14.863,11.593,31.158,21.526,47.684,30.57    c0.473,9.27,1.653,18.969,3.755,27.969c0.248,1.062,1.167,1.652,2.167,1.828c-2.118,0.19-4.234,0.384-6.35,0.56    c-0.098,0.008-0.17,0.047-0.257,0.069c-1.065-0.31-2.287,0.199-2.823,1.538c-0.903,2.255-0.304,5.025-0.101,7.404    c0.101,1.187,0.24,2.367,0.425,3.541c-2.953,0.817-1.931,5.339,1.024,5.504c4.804,0.267,9.673,0.499,14.567,0.697    c1.012,11.849,1.147,23.453,1.125,35.402c-0.003,1.416,1.016,2.935,2.461,3.233c12.029,2.478,24.176,1.925,36.383,1.851    c1.453-0.009,2.888-1.011,3.232-2.461c1.798-7.549,2.923-15.221,3.542-22.954c0.355-4.442,1.041-10.563-0.777-15.081    c3.85-0.206,7.683-0.454,11.47-0.8c0.717,1.207,3.126,1.037,3.345-0.522c0.425-3.039,0.573-6.087,0.836-9.144    C184.62,119.61,186.098,115.801,184.997,113.126z M15.635,149.354c-7.233-1.414-8.507-3.869-8.743-9.734    c1.567,1.869,3.195,3.689,4.88,5.461c1.349,1.42,2.726,2.885,4.142,4.316C15.821,149.379,15.728,149.373,15.635,149.354z     M20.475,150.096c-1.993-1.883-4.1-3.67-6.063-5.536c-2.547-2.422-5.043-4.896-7.572-7.334c0-0.028-0.002-0.049-0.002-0.077    c-0.011-1.535,0.006-3.071,0.005-4.605c5.448,5.577,10.721,12.669,16.927,17.859C22.671,150.31,21.571,150.233,20.475,150.096z     M29.562,150.72c-3.193-2.805-6.6-5.411-9.63-8.411c-4.34-4.297-8.5-8.741-13.087-12.784c0.002-1.089,0.002-2.178,0.003-3.268    c5.244,4.518,10.162,9.433,15.193,14.179c3.445,3.25,8.157,9.194,13.069,10.171c1.224,0.244,2.533-1.372,1.351-2.322    c-10.018-8.056-19.354-17.059-29.611-24.817c0.001-1.758,0.002-3.516,0.005-5.273c0.675,0.095,1.35,0.13,2.026,0.209    c5.467,6.482,11.629,12.264,18.241,17.608c6.162,4.981,13.278,11.271,20.896,14.1C41.861,150.511,35.698,150.866,29.562,150.72z     M61.51,148.346c-5.693-5.269-12.253-9.739-18.462-14.335c-5.999-4.441-12.487-10.984-19.314-13.949    c-0.639-0.278-1.424,0.316-1.014,1.014c3.424,5.812,10.901,10.203,16.098,14.348c5.864,4.676,11.598,9.591,17.529,14.203    c-1.596,0.09-3.189,0.155-4.786,0.26c0.259-0.545,0.241-1.215-0.278-1.704c-5.655-5.325-13.381-8.813-19.748-13.294    c-6.883-4.845-13.496-10.188-19.462-16.152c6.461,0.535,12.924,0.442,19.392,0.225c5.24,4.393,10.769,8.425,16.272,12.478    c2.757,2.03,5.526,4.045,8.269,6.093c1.742,1.3,3.504,3.107,5.55,4.039C61.579,143.824,61.572,146.083,61.51,148.346z     M61.408,136.17c-3.186-2.67-7.77-4.85-10.492-6.617c-5.395-3.504-10.81-6.991-16.056-10.717c3.099-0.119,6.199-0.232,9.301-0.315    c0.049,0.093,0.054,0.197,0.147,0.277c2.918,2.491,6.098,4.686,9.131,7.04c2.18,1.692,4.322,3.438,6.401,5.254    c0.446,0.39,0.89,0.808,1.344,1.205C61.256,133.588,61.359,134.878,61.408,136.17z M60.052,118.735    c0.295,2.483,0.523,4.964,0.73,7.444c-1.672-1.095-3.367-2.015-4.344-2.659c-2.476-1.635-5.171-3.665-7.99-5.082    C52.312,118.399,56.18,118.454,60.052,118.735z M34.074,98.025c10.747-0.595,16.349,7.013,22.929,13.637    c-15.549-0.492-31.071,2.062-46.571,0.736C16.408,104.431,23.517,98.609,34.074,98.025z M139.071,51.675    c5.791-12.421,23.912-9.943,35.713-9.968c-1.295,8.665,0.719,18.676,0.673,27.26c-0.074,13.831-1.33,27.558-2.156,41.347    c-0.002,0.031,0.014,0.053,0.013,0.084c-18.605-0.654-37.258,1.396-55.802,3.089c0.015-0.017,0.027-0.041,0.042-0.059    c0.92-0.44,1.669-1.238,1.618-2.344c-0.438-9.559-2.327-19.013-2.645-28.588c-0.011-0.339-0.119-0.607-0.211-0.889    C125.142,71.782,133.382,63.881,139.071,51.675z M56.883,20.614c-0.836,0.686-1.677,1.363-2.534,2    c-0.29-0.773-0.577-1.548-0.896-2.312C54.605,20.352,55.753,20.433,56.883,20.614z M29.904,63.351    c-2.013,0.268-3.145-5.405-3.486-8.058c0.353,0.269,0.69,0.557,1.047,0.821c2.027,1.501,4.438,3.425,7.036,3.608    C33.084,61.66,31.518,63.137,29.904,63.351z M35.784,57.783c-0.063-0.129-0.087-0.272-0.201-0.378    c-1.635-1.518-3.978-2.308-5.886-3.469c-1.097-0.668-2.163-1.385-3.219-2.119c0.192-1.244,0.567-2.481,1.02-3.706    c2.647,2.973,6.128,5.854,9.762,7.033C36.799,56.026,36.312,56.918,35.784,57.783z M39.914,49.732    c-0.215,0.432-0.472,0.972-0.762,1.584c-1.57-0.536-3.169-1.025-4.648-1.859c-2.102-1.187-3.982-2.779-5.599-4.585    c0.791-1.597,1.649-3.12,2.463-4.573c1.896,1.448,3.815,2.863,5.82,4.16c0.96,0.621,2.592,1.804,4.144,2.298    C40.861,47.749,40.405,48.748,39.914,49.732z M42.933,43.367c-1.024-0.563-2.194-0.986-2.684-1.235    c-2.566-1.301-4.977-2.91-7.347-4.555c0.486-0.853,0.972-1.731,1.463-2.596c3.064,2.127,6.24,4.519,9.608,6.086    C43.627,41.834,43.283,42.602,42.933,43.367z M41.634,35.969c-1.98-1.117-3.934-2.277-5.895-3.425    c0.969-1.785,1.888-3.6,2.668-5.462c1.218,3.773,3.641,7.382,6.592,10.74C43.891,37.193,42.758,36.603,41.634,35.969z     M44.937,28.122c-1.504-2.624-2.569-5.341-2.982-8.141c2.808,0.391,5.783,0.282,8.765,0.277c0.405,1.317,0.778,2.641,1.106,3.975    c-2.163,1.268-4.386,2.439-6.585,3.639C45.111,27.943,45.025,28.033,44.937,28.122z M46.182,30.089    c0.104-0.02,0.206-0.026,0.313-0.074c0.264-0.119,0.528-0.237,0.792-0.354c0.104,0.048,0.174,0.135,0.313,0.135    c0.433,0,0.645-0.283,0.737-0.604c1.403-0.624,2.801-1.256,4.19-1.907c0.275,1.269,0.54,2.542,0.8,3.82    c0.593,2.92,0.918,6.116,1.923,8.982C51.755,36.962,48.558,33.633,46.182,30.089z M56.759,30.158    c-0.389-1.456-0.824-2.891-1.284-4.315c0.076-0.039,0.155-0.073,0.231-0.113c1.948-1.016,4.347-2.263,5.96-3.977    c2.346,0.691,4.647,1.552,6.923,2.494c0.049,3.156,0.086,6.354,0.184,9.564c-0.581,0.398-1.161,0.797-1.748,1.17    c-2.572,1.634-5.217,3.258-7.57,5.214C58.91,36.808,57.638,33.447,56.759,30.158z M60.002,44.044    c2.77-2.095,5.929-3.784,8.995-5.45c0.282,4.517,0.846,8.996,1.936,13.34C67.438,49.563,63.677,46.937,60.002,44.044z     M73.218,36.365c2.414-1.235,5.047-2.776,5.617-5.194c0.385-1.634-1.278-2.878-2.748-2.112c-1.191,0.621-2.344,1.361-3.487,2.128    c-0.203-1.802-0.407-3.61-0.616-5.421c4.743,2.19,9.357,4.697,13.826,7.197c0.027,0.015,0.051,0.033,0.078,0.048    c-0.017,0.09-0.056,0.161-0.061,0.26c-0.216,4.186,0.106,8.371,0.607,12.531c-0.247,0.188-0.495,0.379-0.741,0.554    c-3.025,2.154-6.15,4.066-9.557,5.477C74.731,46.739,73.879,41.577,73.218,36.365z M84.885,61.175    c-2.383-1.539-4.776-3.063-7.13-4.654c-0.066-0.045-0.148-0.099-0.215-0.144c-0.173-0.491-0.297-0.987-0.457-1.479    c3.365-0.901,6.516-2.377,9.547-4.139c0.134-0.078,0.28-0.158,0.418-0.236c0.337,2.634,0.545,5.52,0.916,8.354    C86.936,59.642,85.881,60.374,84.885,61.175z M89.204,35.046c2.485,1.56,4.923,3.2,7.287,4.964    c-0.286-0.059-0.594-0.078-0.942,0.007c-1.9,0.464-3.661,1.573-5.342,2.832C89.804,40.26,89.473,37.66,89.204,35.046z     M91.968,52.832c-0.295-1.531-0.58-3.061-0.855-4.592c2.424-1.404,4.819-2.987,6.364-4.91c0.584-0.727,0.623-1.643,0.281-2.34    c2.389,1.82,4.736,3.707,7.07,5.605c-2.148,1.525-4.199,3.396-5.849,4.525c-2.133,1.46-4.286,2.914-6.421,4.39    C92.343,54.599,92.135,53.7,91.968,52.832z M93.606,66.766c0.009-0.028,0.027-0.05,0.033-0.079    c0.462-2.064,0.303-4.262-0.073-6.464c2.663-1.573,5.307-3.182,7.941-4.779c1.542-0.934,3.673-1.94,5.691-3.115    c0.64,3.172,1.214,6.358,1.743,9.546c0.062,0.373,0.113,0.772,0.168,1.162c-0.1,0.051-0.207,0.115-0.305,0.163    c-4.11,2.023-8.374,3.693-12.721,5.089C95.262,67.779,94.429,67.28,93.606,66.766z M101.015,71.323    c2.593-0.491,5.245-1.663,7.299-2.437c0.45-0.17,0.948-0.343,1.449-0.518c0.426,3.458,1.013,7.003,2.438,9.836    C108.465,75.917,104.743,73.616,101.015,71.323z M113.879,60.28c-0.647-2.739-1.34-5.448-2.153-8.111    c2.48,1.98,4.98,3.906,7.53,5.723C117.48,58.323,115.65,59.253,113.879,60.28z M115.523,66.306    c3.14-1.235,6.161-2.769,7.798-4.948c0.133-0.176,0.22-0.362,0.284-0.549c0.918,0.583,1.834,1.168,2.772,1.709    c-2.686,4.001-5.915,7.645-9.043,11.345C116.941,71.367,116.239,68.805,115.523,66.306z M137.574,166.343    c-0.157-0.116-0.317-0.231-0.477-0.348c-1.076-0.783-2.101-1.629-3.112-2.493c-1.236-1.06-2.414-2.197-3.56-3.365    c-0.048-1.302-0.149-2.607-0.228-3.912c2.239,2.307,4.381,4.715,6.566,7.07c0.86,0.927,1.817,2.051,2.845,3.17    C138.932,166.42,138.252,166.4,137.574,166.343z M146.142,166.739c-2.494-2.338-5.495-4.434-7.869-6.758    c-2.711-2.655-5.431-5.307-8.36-7.713c-0.201-2.208-0.489-4.404-0.825-6.591c5.376,4.482,10.264,9.552,15.205,14.496    c2.013,2.015,4.242,4.418,6.65,6.594C149.342,166.766,147.741,166.77,146.142,166.739z M160.038,166.716    c-0.646,0.007-1.29,0.011-1.936,0.018c-4.543-4.285-10.035-8.084-14.544-12.24c-4.796-4.421-9.671-8.653-15.056-12.295    c-0.608-3.106-1.386-6.17-2.41-9.148c0.229,0.008,0.459,0.012,0.688,0.02c5.967,6.378,12.511,12.255,18.761,18.346    c3.572,3.48,7.109,7.001,10.593,10.57c1.322,1.355,2.584,2.966,3.975,4.389C160.084,166.487,160.063,166.602,160.038,166.716z     M161.439,159.54c-3.573-3.687-8.236-7.001-11.195-9.621c-6.401-5.671-12.856-11.364-19.533-16.732    c1.778,0.053,3.564,0.051,5.347,0.089c-0.226,0.368-0.215,0.866,0.263,1.162c5.699,3.521,10.552,8.945,15.436,13.466    c2.488,2.303,6.235,7.139,10.006,9.463C161.649,158.09,161.563,158.817,161.439,159.54z M162.83,147.98    c-0.081,1.347-0.232,2.69-0.373,4.034c-0.405-0.3-0.811-0.6-1.16-0.894c-3.008-2.537-5.96-5.142-8.943-7.709    c-3.828-3.293-8.716-8.323-13.803-10.095c2.987,0.052,5.975,0.064,8.962,0.075c4.314,3.341,8.068,7.382,11.968,11.177    c0.919,0.896,2.071,2.17,3.35,3.196C162.827,147.835,162.835,147.91,162.83,147.98z M156.509,133.308    c1.952,2.089,3.962,4.143,6.017,6.159c0.058,0.938,0.12,1.88,0.183,2.818c-1.125-0.923-2.235-1.867-3.339-2.806    c-2.398-2.037-4.779-4.104-7.225-6.092C153.602,133.379,155.053,133.329,156.509,133.308z M111.633,126.491    c-0.049-1.106-0.083-2.214-0.081-3.323c0.004-2.014,0.39-4.234,0.003-6.238c22.575,1.216,45.167-1.026,67.771-0.133    c-0.078,1.491,0.038,3.038,0.045,4.502c0.006,1.765,0.053,3.524,0.155,5.279C157.206,124.747,134.102,126.478,111.633,126.491z"/>
        </g>
    </g>
    </svg>